<svg xmlns="http://www.w3.org/2000/svg" width="135" height="40" viewBox="0 0 135 40"><path d="M28 11H12a2 2 0 0 0-2 2v10c0 1.1.9 2 2 2h7.75v3.5h-5a.75.75 0 0 0 0 1.5h11.5a.75.75 0 0 0 0-1.5h-5V25H28a2 2 0 0 0 2-2V13a2 2 0 0 0-2-2z" fill="#fff"/><path d="M14.45 19.5a.75.75 0 0 0 1.1 1l-1.1-1zm4.19-3.5l.55-.5a.75.75 0 0 0-1.1 0l.55.5zm2.72 3l-.55.5a.75.75 0 0 0 1.1 0l-.55-.5zm4.2-3.5a.75.75 0 0 0-1.11-1l1.1 1zm-10 5l3.63-4-1.1-1-3.64 4 1.1 1zm2.52-4l2.73 3 1.1-1-2.72-3-1.1 1zm3.84 3l3.63-4-1.1-1-3.64 4 1.1 1z" fill="#2A2E39"/><path d="M40.58 13h2.24c1.9 0 3-1.18 3-3.18V9.8c0-2-1.12-3.15-3-3.15h-2.24V13zm.99-.85V7.5h1.16c1.33 0 2.09.82 2.09 2.3v.02c0 1.5-.75 2.32-2.1 2.32h-1.15zm7.25.94c1.32 0 2.19-.91 2.19-2.4v-.01c0-1.48-.88-2.4-2.2-2.4-1.31 0-2.19.92-2.19 2.4 0 1.5.87 2.41 2.2 2.41zm0-.8c-.74 0-1.23-.58-1.23-1.6v-.01c0-1.01.5-1.6 1.22-1.6.74 0 1.23.59 1.23 1.6 0 1.03-.48 1.62-1.22 1.62zm4 .71h.97l.97-3.46h.02l.97 3.46h.99L58 8.38h-.94l-.84 3.64h-.02l-.97-3.64h-.91l-.97 3.64h-.01l-.85-3.64h-.95L52.81 13zm5.94 0h.95v-2.7c0-.71.43-1.2 1.1-1.2.66 0 .99.4.99 1.09V13h.95v-3c0-1.06-.58-1.71-1.6-1.71-.7 0-1.17.32-1.41.79h-.03v-.7h-.95V13zm5.12 0h.95V6.66h-.95V13zm4.1.1c1.32 0 2.19-.92 2.19-2.41v-.01c0-1.48-.88-2.4-2.2-2.4-1.31 0-2.19.92-2.19 2.4 0 1.5.87 2.41 2.2 2.41zm0-.8c-.74 0-1.23-.59-1.23-1.61v-.01c0-1.01.5-1.6 1.22-1.6.74 0 1.23.59 1.23 1.6 0 1.03-.48 1.62-1.22 1.62zm4.46.78c.61 0 1.15-.31 1.41-.8h.02V13h.96V9.81c0-.92-.72-1.52-1.85-1.52-1.14 0-1.83.61-1.9 1.4v.05h.9V9.7c.09-.37.42-.62.97-.62.6 0 .92.3.92.81v.35l-1.25.07c-1.1.07-1.72.56-1.72 1.37 0 .84.62 1.4 1.54 1.4zm-.59-1.42c0-.4.32-.65.9-.68l1.12-.07v.36c0 .6-.5 1.05-1.17 1.05-.51 0-.85-.25-.85-.66zm5.8 1.43c.67 0 1.18-.33 1.46-.87h.01V13h.96V6.66h-.96v2.5h-.01c-.28-.54-.8-.87-1.46-.87-1.16 0-1.93.92-1.93 2.4 0 1.47.76 2.4 1.94 2.4zm.26-.82c-.76 0-1.22-.6-1.22-1.58 0-.98.47-1.59 1.22-1.59.7 0 1.22.63 1.22 1.58 0 .97-.5 1.6-1.22 1.6zM41 30h4.1c3.38 0 5.37-2.1 5.37-5.66v-.02c0-3.56-2-5.6-5.36-5.6h-4.12V30zm2-1.7v-7.87h1.9c2.24 0 3.51 1.38 3.51 3.9v.01c0 2.57-1.25 3.96-3.51 3.96H43zm12.2 1.86c2.16 0 3.38-1.28 3.64-2.55l.02-.09h-1.82l-.02.06c-.18.55-.82 1.07-1.79 1.07-1.26 0-2.06-.86-2.09-2.31h5.8v-.63c0-2.5-1.47-4.16-3.84-4.16s-3.89 1.72-3.89 4.32v.01c0 2.64 1.5 4.28 3.99 4.28zm-.07-7.09c1.03 0 1.78.66 1.92 1.97h-3.89c.16-1.27.93-1.97 1.97-1.97zm7.98 7.1c2.03 0 3.48-1.05 3.48-2.62 0-1.2-.67-1.88-2.38-2.26l-1.38-.3c-.86-.2-1.18-.51-1.18-.99 0-.62.54-1.02 1.4-1.02.9 0 1.44.49 1.52 1.15v.07h1.82v-.1c-.08-1.42-1.28-2.55-3.34-2.55-2 0-3.32 1.02-3.32 2.54 0 1.23.8 2 2.38 2.36l1.38.3c.85.2 1.14.48 1.14.98 0 .61-.57 1-1.51 1-.99 0-1.53-.43-1.67-1.14l-.02-.07h-1.91v.07c.18 1.54 1.42 2.57 3.59 2.57zm4.48-.17h1.95v-2.88l.66-.68L72.8 30h2.25l-3.42-4.72 3.28-3.56h-2.25l-3.1 3.44h-.03v-6.43h-1.95V30zm10.97.16c.4 0 .74-.04.96-.07v-1.46c-.13.01-.28.03-.46.03-.72 0-1.07-.25-1.07-1.07v-4.37h1.53v-1.5H78v-2.1H76v2.1h-1.17v1.5H76v4.54c0 1.7.82 2.4 2.55 2.4zm5.49 0c2.43 0 4-1.61 4-4.3v-.02c0-2.67-1.6-4.3-4-4.3-2.42 0-4 1.65-4 4.3v.02c0 2.68 1.56 4.3 4 4.3zm0-1.57c-1.24 0-2.02-.99-2.02-2.73v-.02c0-1.71.8-2.71 2.01-2.71 1.23 0 2.03.99 2.03 2.71v.02c0 1.73-.79 2.73-2.01 2.73zM89 32.73h1.94V28.6h.04a2.78 2.78 0 0 0 2.6 1.56c2.07 0 3.4-1.64 3.4-4.3 0-2.67-1.33-4.31-3.43-4.31-1.19 0-2.1.6-2.57 1.6h-.04v-1.43H89v11.01zm3.97-4.2c-1.2 0-2.04-1.05-2.04-2.66v-.01c0-1.63.84-2.67 2.04-2.67 1.25 0 2.03 1.01 2.03 2.67 0 1.64-.78 2.66-2.03 2.66zM100.2 30h2.1l.96-2.91h4.2l.95 2.91h2.12l-4.03-11.27h-2.27L100.2 30zm5.14-9.27h.05l1.56 4.8h-3.18l1.57-4.8zm5.87 12h1.95V28.6h.04a2.78 2.78 0 0 0 2.6 1.56c2.07 0 3.4-1.64 3.4-4.3 0-2.67-1.33-4.31-3.43-4.31-1.19 0-2.1.6-2.57 1.6h-.04v-1.43h-1.95v11.01zm3.98-4.2c-1.2 0-2.05-1.05-2.05-2.66v-.01c0-1.63.85-2.67 2.05-2.67 1.24 0 2.02 1.01 2.02 2.67 0 1.64-.78 2.66-2.02 2.66zm4.94 4.2h1.94V28.6h.04a2.78 2.78 0 0 0 2.6 1.56c2.07 0 3.4-1.64 3.4-4.3 0-2.67-1.33-4.31-3.43-4.31-1.19 0-2.1.6-2.57 1.6h-.04v-1.43h-1.94v11.01zm3.98-4.2c-1.2 0-2.05-1.05-2.05-2.66v-.01c0-1.63.84-2.67 2.05-2.67 1.24 0 2.02 1.01 2.02 2.67 0 1.64-.78 2.66-2.02 2.66z" fill="#fff"/></svg>