<svg width="1720" height="1120" viewBox="0 0 1720 1120" fill="none" xmlns="http://www.w3.org/2000/svg"><g filter="url(#azugsu1sd)"><path d="m108 1026 3-934h1516l-19 930-1500 4Z" stroke="#D500F9" stroke-width="5"/></g><g filter="url(#bzugsu1sd)"><path d="M117 1037 91 108h1519l-9 905-1484 24Z" stroke="#2962FF" stroke-width="5"/></g><g filter="url(#czugsu1sd)"><path d="m110 1024 15-923h1467l7 916-1489 7Z" stroke="#00E5FF" stroke-width="5"/></g><path d="M107 1018V74l1523 18-21 949-1502-23Z" stroke="#D500F9" stroke-width="7"/><g filter="url(#dzugsu1sd)"><path d="M107 1019V75l1522 18-20 948-1502-22Z" stroke="#D500F9" stroke-width="7"/></g><path d="M121 1030 93 107l1521 1 9 917-1502 5Z" stroke="#2962FF" stroke-width="7"/><g filter="url(#ezugsu1sd)"><path d="M121 1029 93 107h1521l9 918-1502 4Z" stroke="#2962FF" stroke-width="7"/></g><path d="m129 1009-6-915 1473-13v936l-1467-8Z" stroke="#00E5FF" stroke-width="7"/><g filter="url(#fzugsu1sd)"><path d="m128 1011-5-918 1473-13v937l-1468-6Z" stroke="#00E5FF" stroke-width="7"/></g><defs><filter id="azugsu1sd" x="32" y="16" width="1672" height="1087" filterUnits="userSpaceOnUse" color-interpolation-filters="sRGB"><feFlood flood-opacity="0" result="BackgroundImageFix"/><feBlend in="SourceGraphic" in2="BackgroundImageFix" result="shape"/><feGaussianBlur stdDeviation="37" result="effect1_foregroundBlur_759_40661"/></filter><filter id="bzugsu1sd" x="15" y="32" width="1672" height="1081" filterUnits="userSpaceOnUse" color-interpolation-filters="sRGB"><feFlood flood-opacity="0" result="BackgroundImageFix"/><feBlend in="SourceGraphic" in2="BackgroundImageFix" result="shape"/><feGaussianBlur stdDeviation="37" result="effect1_foregroundBlur_759_40661"/></filter><filter id="czugsu1sd" x="34" y="25" width="1642" height="1076" filterUnits="userSpaceOnUse" color-interpolation-filters="sRGB"><feFlood flood-opacity="0" result="BackgroundImageFix"/><feBlend in="SourceGraphic" in2="BackgroundImageFix" result="shape"/><feGaussianBlur stdDeviation="37" result="effect1_foregroundBlur_759_40661"/></filter><filter id="dzugsu1sd" x="98" y="66" width="1541" height="985" filterUnits="userSpaceOnUse" color-interpolation-filters="sRGB"><feFlood flood-opacity="0" result="BackgroundImageFix"/><feBlend in="SourceGraphic" in2="BackgroundImageFix" result="shape"/><feGaussianBlur stdDeviation="3" result="effect1_foregroundBlur_759_40661"/></filter><filter id="ezugsu1sd" x="84" y="98" width="1549" height="940" filterUnits="userSpaceOnUse" color-interpolation-filters="sRGB"><feFlood flood-opacity="0" result="BackgroundImageFix"/><feBlend in="SourceGraphic" in2="BackgroundImageFix" result="shape"/><feGaussianBlur stdDeviation="3" result="effect1_foregroundBlur_759_40661"/></filter><filter id="fzugsu1sd" x="114" y="71" width="1491" height="956" filterUnits="userSpaceOnUse" color-interpolation-filters="sRGB"><feFlood flood-opacity="0" result="BackgroundImageFix"/><feBlend in="SourceGraphic" in2="BackgroundImageFix" result="shape"/><feGaussianBlur stdDeviation="3" result="effect1_foregroundBlur_759_40661"/></filter></defs></svg>