<svg width="28" height="28" viewBox="0 0 28 28" xmlns="http://www.w3.org/2000/svg"><path fill-rule="evenodd" d="M18.45 3h-8.9A6.56 6.56 0 0 0 3 9.55v8.9A6.56 6.56 0 0 0 9.55 25h8.9A6.56 6.56 0 0 0 25 18.45v-8.9A6.56 6.56 0 0 0 18.45 3ZM23 18.45c0 2.4-2.16 4.55-4.55 4.55h-8.9A4.71 4.71 0 0 1 5 18.45v-8.9C5 7.15 7.16 5 9.55 5h8.9C20.85 5 23 7.16 23 9.55v8.9ZM14 17a3 3 0 1 0 0-6 3 3 0 0 0 0 6Zm0 2a5 5 0 1 0 0-10 5 5 0 0 0 0 10Zm5.5-9a1.5 1.5 0 1 0 0-3 1.5 1.5 0 0 0 0 3Z" fill="currentColor"/></svg>