<svg width="72" height="72" viewBox="0 0 72 72" xmlns="http://www.w3.org/2000/svg"><path d="M40.75 11.34a1 1 0 0 0-1.54.04l-19.63 25a1 1 0 0 0 1.1 1.57l14.2-4.83 11.85 9.65a1 1 0 0 0 1.16.08l12.27-7.5a1 1 0 0 0 .23-1.5l-19.64-22.5ZM23.23 34.97l16.81-21.4 18.07 20.7-10.66 6.5-11.73-9.55a1 1 0 0 0-.95-.17l-11.54 3.92ZM22 42.67 12.2 56.42A1 1 0 0 0 13 58h54a1 1 0 0 0 .82-1.58L58 42.67l-1.63 1.16L65.06 56H14.94l8.7-12.17L22 42.67Z" fill="url(#a0gk5jftz)"/><g filter="url(#b0gk5jftz)"><path d="M22.54 34.22 38.51 13.9a2 2 0 0 1 3.08-.08L58 32.62a2 2 0 0 1-.55 3.07l-1.84 1.01a2 2 0 0 0-.68 2.9l9.9 14.26A2 2 0 0 1 63.17 57H16.7a2 2 0 0 1-1.67-3.1L25.2 38.47c.65-1-.2-2.28-1.36-2.08a1.35 1.35 0 0 1-1.3-2.17Z" fill="url(#c0gk5jftz)" fill-opacity=".3"/></g><g filter="url(#d0gk5jftz)"><path d="M40.83 14.48a1 1 0 0 0-1.53.04L23.33 34.84c-.2.26.02.62.34.57a2.35 2.35 0 0 1 2.37 3.6L15.88 54.46A1 1 0 0 0 16.7 56h46.47a1 1 0 0 0 .82-1.57l-9.9-14.26a3 3 0 0 1 1.03-4.35l1.84-1a1 1 0 0 0 .28-1.54l-16.42-18.8Zm-3.1-1.2a3 3 0 0 1 4.61-.12l16.41 18.8a3 3 0 0 1-.82 4.61l-1.84 1a1 1 0 0 0-.34 1.46l9.9 14.26A3 3 0 0 1 63.17 58H16.71a3 3 0 0 1-2.5-4.65l10.16-15.43a.35.35 0 0 0-.36-.54 2.35 2.35 0 0 1-2.25-3.77l15.96-20.33Z" fill="url(#e0gk5jftz)"/></g><defs><linearGradient id="a0gk5jftz" x1="68" y1="16.75" x2="29.11" y2="64.84" gradientUnits="userSpaceOnUse"><stop stop-color="#00BCE6"/><stop offset=".5" stop-color="#2962FF"/><stop offset="1" stop-color="#D500F9"/></linearGradient><linearGradient id="c0gk5jftz" x1="111.18" y1="-17.66" x2="28.94" y2="69.92" gradientUnits="userSpaceOnUse"><stop offset=".5" stop-color="#2962FF"/><stop offset="1" stop-color="#D500F9"/></linearGradient><linearGradient id="e0gk5jftz" x1="111.18" y1="-17.66" x2="28.94" y2="69.92" gradientUnits="userSpaceOnUse"><stop offset=".5" stop-color="#2962FF"/><stop offset="1" stop-color="#D500F9"/></linearGradient><filter id="b0gk5jftz" x="-3.29" y="-4.87" width="86.47" height="79.87" filterUnits="userSpaceOnUse" color-interpolation-filters="sRGB"><feFlood flood-opacity="0"/><feBlend in="SourceGraphic"/><feGaussianBlur stdDeviation="9"/></filter><filter id="d0gk5jftz" x="3.71" y="2.13" width="72.48" height="65.87" filterUnits="userSpaceOnUse" color-interpolation-filters="sRGB"><feGaussianBlur stdDeviation="5"/></filter></defs></svg>