<svg width="72" height="72" viewBox="0 0 72 72" xmlns="http://www.w3.org/2000/svg"><path d="M24 19a3 3 0 0 0-3 3v32a3 3 0 0 0 3 3h32a3 3 0 0 0 3-3V22a3 3 0 0 0-3-3H24Zm-5 3a5 5 0 0 1 5-5h32a5 5 0 0 1 5 5v32a5 5 0 0 1-5 5H24a5 5 0 0 1-5-5V22Z" fill="url(#aqmphsgtt)"/><g filter="url(#bqmphsgtt)"><path d="M24 58h32a4 4 0 0 0 4-4V22a4 4 0 0 0-4-4H24a4 4 0 0 0-4 4v32a4 4 0 0 0 4 4Z" fill="url(#cqmphsgtt)" fill-opacity=".3"/></g><g filter="url(#dqmphsgtt)"><path d="M24 19a3 3 0 0 0-3 3v32a3 3 0 0 0 3 3h32a3 3 0 0 0 3-3V22a3 3 0 0 0-3-3H24Zm-5 3a5 5 0 0 1 5-5h32a5 5 0 0 1 5 5v32a5 5 0 0 1-5 5H24a5 5 0 0 1-5-5V22Z" fill="url(#eqmphsgtt)"/></g><defs><linearGradient id="aqmphsgtt" x1="60" y1="22.89" x2="26.17" y2="58" gradientUnits="userSpaceOnUse"><stop stop-color="#00BCE6"/><stop offset=".5" stop-color="#2962FF"/><stop offset="1" stop-color="#D500F9"/></linearGradient><linearGradient id="cqmphsgtt" x1="92.73" y1="-8.36" x2="20" y2="56.18" gradientUnits="userSpaceOnUse"><stop stop-color="#00BCE6"/><stop offset=".5" stop-color="#2962FF"/><stop offset="1" stop-color="#D500F9"/></linearGradient><linearGradient id="eqmphsgtt" x1="92.73" y1="-8.36" x2="20" y2="56.18" gradientUnits="userSpaceOnUse"><stop stop-color="#00BCE6"/><stop offset=".5" stop-color="#2962FF"/><stop offset="1" stop-color="#D500F9"/></linearGradient><filter id="bqmphsgtt" x="2" y="0" width="76" height="76" filterUnits="userSpaceOnUse" color-interpolation-filters="sRGB"><feFlood flood-opacity="0"/><feBlend in="SourceGraphic"/><feGaussianBlur stdDeviation="9"/></filter><filter id="dqmphsgtt" x="9" y="7" width="62" height="62" filterUnits="userSpaceOnUse" color-interpolation-filters="sRGB"><feFlood flood-opacity="0"/><feBlend in="SourceGraphic"/><feGaussianBlur stdDeviation="5"/></filter></defs></svg>